<?xml version="1.0" encoding="UTF-8"?>
<svg xmlns="http://www.w3.org/2000/svg" xmlns:xlink="http://www.w3.org/1999/xlink" width="1868.824096pt" height="701.3998pt" viewBox="0 0 1868.824096 701.3998" version="1.1">
<defs>
<clipPath id="clip1">
  <path d="M 0 0 L 1868.824219 0 L 1868.824219 701.398438 L 0 701.398438 Z M 0 0 "/>
</clipPath>
</defs>
<g id="surface1">
<g clip-path="url(#clip1)" clip-rule="nonzero">
<path style=" stroke:none;fill-rule:nonzero;fill:rgb(100%,100%,100%);fill-opacity:1;" d="M -6.175781 -552.910156 L 1868.824219 -552.910156 L 1868.824219 1322.089844 L -6.175781 1322.089844 Z M -6.175781 -552.910156 "/>
</g>
<path style=" stroke:none;fill-rule:evenodd;fill:rgb(0%,0%,0%);fill-opacity:1;" d="M 147.125 515.511719 L 147.125 511.921875 L 184.828125 511.921875 L 184.828125 515.511719 C 171.453125 515.511719 169.363281 518.261719 169.363281 535.402344 L 169.363281 576.539063 C 169.363281 603.453125 151.953125 617.6875 130.523438 617.6875 C 109.25 617.6875 91.847656 603.445313 91.847656 576.539063 L 91.847656 535.402344 C 91.847656 518.261719 89.910156 515.511719 76.535156 515.511719 L 76.535156 511.921875 L 120.046875 511.921875 L 120.046875 515.511719 C 106.671875 515.511719 104.746094 518.261719 104.746094 535.402344 L 104.746094 577.40625 C 104.746094 599.679688 116.835938 609.972656 132.945313 609.972656 C 149.871094 609.972656 162.601563 599.679688 162.601563 577.40625 L 162.601563 535.402344 C 162.601563 518.261719 160.5 515.511719 147.125 515.511719 Z M 223.855469 554.769531 C 238.359375 554.769531 244.808594 565.742188 244.808594 580.3125 L 244.808594 591.109375 C 244.808594 608.261719 246.746094 611.167969 257.542969 611.167969 L 257.542969 614.757813 L 220.636719 614.757813 L 220.636719 611.167969 C 231.113281 611.167969 233.371094 608.25 233.371094 591.109375 L 233.371094 581.167969 C 233.371094 570.03125 229.664063 562.832031 219.996094 562.832031 C 211.132813 562.832031 201.464844 570.546875 201.464844 579.972656 L 201.464844 591.121094 C 201.464844 608.777344 202.746094 611.179688 212.738281 611.179688 L 212.738281 614.765625 L 177.28125 614.765625 L 177.28125 611.179688 C 187.921875 611.179688 190.015625 608.261719 190.015625 591.121094 L 190.015625 582.550781 C 190.015625 565.402344 187.921875 562.660156 177.28125 562.660156 L 177.28125 559.070313 L 198.71875 554.777344 C 199.527344 556.5 200.976563 563.523438 201.464844 567.125 C 205.800781 561.277344 213.222656 554.769531 223.855469 554.769531 Z M 223.855469 554.769531 "/>
<path style=" stroke:none;fill-rule:evenodd;fill:rgb(0%,0%,0%);fill-opacity:1;" d="M 257.054688 614.765625 L 257.054688 611.179688 C 267.6875 611.179688 269.789063 608.261719 269.789063 591.121094 L 269.789063 582.550781 C 269.789063 565.402344 267.6875 562.660156 257.054688 562.660156 L 257.054688 559.070313 L 281.226563 554.777344 L 281.226563 591.121094 C 281.226563 608.269531 283.164063 611.179688 293.960938 611.179688 L 293.960938 614.765625 Z M 275.429688 537.96875 C 271.570313 537.96875 268.339844 534.535156 268.339844 530.257813 C 268.339844 526.132813 271.558594 522.71875 275.429688 522.71875 C 279.300781 522.71875 282.519531 526.140625 282.519531 530.257813 C 282.519531 534.546875 279.292969 537.96875 275.429688 537.96875 Z M 343.054688 571.226563 L 324.835938 617.851563 L 321.617188 617.851563 L 301.957031 571.226563 C 298.890625 563.84375 296.316406 561.101563 290.828125 561.101563 L 290.828125 557.679688 L 319.503906 557.679688 L 319.503906 561.101563 C 312.101563 561.101563 311.128906 562.988281 314.359375 571.226563 L 325.796875 598.648438 L 336.59375 571.226563 C 339.496094 563.84375 339.007813 561.101563 331.917969 561.101563 L 331.917969 557.679688 L 354.472656 557.679688 L 354.472656 561.101563 C 348.863281 561.101563 345.964844 563.6875 343.054688 571.226563 Z M 388.800781 610.488281 C 394.132813 610.488281 401.867188 607.230469 406.535156 602.597656 L 409.433594 606.371094 C 403.792969 612.726563 393.957031 617.695313 384.785156 617.695313 C 367.0625 617.695313 354.96875 603.453125 354.96875 586.140625 C 354.96875 567.980469 369.796875 554.769531 384.785156 554.769531 C 399.121094 554.769531 410.5625 567.113281 406.699219 581.851563 L 367.859375 581.851563 C 365.921875 597.96875 372.207031 610.488281 388.800781 610.488281 Z M 395.574219 575.519531 C 397.351563 570.042969 394.609375 561.636719 383.976563 561.636719 C 377.042969 561.636719 371.078125 567.105469 368.824219 575.519531 Z M 463.167969 573.457031 C 460.113281 573.457031 457.527344 570.546875 457.527344 567.289063 C 457.527344 563.6875 455.589844 561.636719 452.371094 561.636719 C 448.664063 561.636719 439.957031 567.96875 439.957031 581.683594 L 439.957031 591.121094 C 439.957031 608.269531 441.894531 611.179688 452.691406 611.179688 L 452.691406 614.765625 L 415.785156 614.765625 L 415.785156 611.179688 C 426.417969 611.179688 428.519531 608.261719 428.519531 591.121094 L 428.519531 582.550781 C 428.519531 565.402344 426.417969 562.660156 415.785156 562.660156 L 415.785156 559.070313 L 437.226563 554.777344 C 438.03125 556.5 439.480469 563.523438 439.957031 567.125 C 443.1875 560.273438 450.433594 554.777344 456.875 554.777344 C 465.734375 554.777344 469.617188 561.113281 469.617188 565.410156 C 469.617188 569.175781 468.15625 573.457031 463.167969 573.457031 Z M 497.59375 617.695313 C 485.765625 617.695313 479.246094 605.515625 479.246094 617.695313 L 475.824219 617.695313 L 475.824219 592.667969 L 479.246094 592.667969 C 479.246094 600.378906 485.765625 611.867188 498.109375 611.867188 C 503.585938 611.867188 507.710938 607.929688 507.710938 603.125 C 507.710938 598.84375 504.101563 595.75 498.109375 592.675781 L 488.671875 587.53125 C 480.277344 583.074219 477.183594 575.878906 477.183594 570.382813 C 477.183594 561.121094 485.753906 554.777344 494.675781 554.777344 C 507.535156 554.777344 510.101563 563.699219 510.101563 554.777344 L 513.699219 554.777344 L 513.699219 574.660156 L 510.101563 574.660156 C 510.101563 567.464844 504.957031 560.273438 496.210938 560.273438 C 490.382813 560.273438 487.464844 563.347656 487.464844 567.636719 C 487.464844 571.761719 490.382813 573.980469 497.921875 578.105469 L 506.152344 582.558594 C 513.691406 586.839844 517.980469 592.84375 517.980469 599.007813 C 517.980469 610.3125 508.730469 617.695313 497.59375 617.695313 Z M 586.722656 544.828125 L 586.722656 557.6875 L 600.574219 557.6875 L 600.574219 563.6875 L 586.722656 563.6875 L 586.722656 598.320313 C 586.722656 606.546875 588.816406 610.835938 593.972656 610.835938 C 596.871094 610.835938 600.742188 608.609375 604.445313 604.835938 L 607.023438 607.746094 C 602.667969 613.582031 595.574219 617.695313 590.097656 617.695313 C 581.226563 617.695313 575.273438 611.683594 575.273438 598.320313 L 575.273438 563.6875 L 566.734375 563.6875 L 566.734375 559.574219 C 576.402344 557.347656 579.625 548.261719 579.625 540.363281 C 579.625 531.96875 576.589844 522.542969 563.367188 522.542969 C 555.636719 522.542969 552.570313 527.339844 550.957031 531.792969 C 549.351563 535.390625 547.414063 537.96875 543.554688 537.96875 C 539.683594 537.96875 536.464844 534.535156 536.464844 530.257813 C 536.464844 521.851563 547.746094 517.5625 562.085938 517.5625 C 579 517.570313 586.722656 528.542969 586.722656 544.828125 Z M 586.722656 544.828125 "/>
<path style=" stroke:none;fill-rule:evenodd;fill:rgb(0%,0%,0%);fill-opacity:1;" d="M 525.179688 614.765625 L 525.179688 611.179688 C 535.8125 611.179688 537.914063 608.261719 537.914063 591.121094 L 537.914063 582.550781 C 537.914063 565.402344 535.8125 562.660156 525.179688 562.660156 L 525.179688 559.070313 L 549.351563 554.777344 L 549.351563 591.121094 C 549.351563 608.269531 551.277344 611.179688 562.085938 611.179688 L 562.085938 614.765625 Z M 585.886719 557.6875 L 634.554688 557.6875 L 634.554688 561.113281 C 627.460938 561.113281 625.691406 562.84375 629.398438 571.238281 L 641.15625 598.660156 L 651.46875 571.238281 C 654.523438 563.523438 653.40625 561.113281 646.800781 561.113281 L 646.800781 557.6875 L 669.359375 557.6875 L 669.359375 561.113281 C 664.367188 561.113281 660.816406 563.699219 657.910156 571.238281 L 640.671875 616.839844 C 634.058594 634.152344 623.425781 659.875 600.058594 659.875 C 591.996094 659.875 586.199219 654.550781 586.199219 650.273438 C 586.199219 646.332031 587.804688 643.578125 591.839844 643.578125 C 597.484375 643.578125 593.777344 652.324219 603.125 652.324219 C 618.746094 652.324219 628.105469 632.433594 634.875 612.734375 L 617.949219 573.804688 C 614.5625 566.265625 612.152344 563.699219 607.160156 563.699219 L 585.886719 563.699219 Z M 722.148438 591.109375 C 722.148438 608.261719 724.082031 611.167969 737.457031 611.167969 L 737.457031 614.757813 L 693.949219 614.757813 L 693.949219 611.167969 C 707.324219 611.167969 709.25 608.25 709.25 591.109375 L 709.25 535.390625 C 709.25 518.253906 707.324219 515.5 693.949219 515.5 L 693.949219 511.910156 L 737.457031 511.910156 L 737.457031 515.5 C 724.082031 515.5 722.148438 518.253906 722.148438 535.390625 L 722.148438 556.996094 L 776.941406 556.996094 L 776.941406 535.390625 C 776.941406 518.253906 774.839844 515.5 761.476563 515.5 L 761.476563 511.910156 L 805.140625 511.910156 L 805.140625 515.5 C 791.609375 515.5 789.675781 518.253906 789.675781 535.390625 L 789.675781 591.109375 C 789.675781 608.261719 791.609375 611.167969 805.140625 611.167969 L 805.140625 614.757813 L 761.476563 614.757813 L 761.476563 611.167969 C 774.851563 611.167969 776.941406 608.25 776.941406 591.109375 L 776.941406 563.339844 L 722.148438 563.339844 Z M 839.78125 610.488281 C 845.089844 610.488281 852.824219 607.230469 857.503906 602.597656 L 860.402344 606.371094 C 854.761719 612.726563 844.9375 617.695313 835.742188 617.695313 C 818.019531 617.695313 805.929688 603.453125 805.929688 586.140625 C 805.929688 567.980469 820.753906 554.769531 835.742188 554.769531 C 850.082031 554.769531 861.53125 567.113281 857.648438 581.851563 L 818.816406 581.851563 C 816.902344 597.96875 823.1875 610.488281 839.78125 610.488281 Z M 846.550781 575.519531 C 848.320313 570.042969 845.578125 561.636719 834.945313 561.636719 C 828.019531 561.636719 822.058594 567.105469 819.800781 575.519531 Z M 914.660156 616.65625 C 908.378906 616.65625 904.507813 612.878906 903.707031 606.714844 C 895.808594 614.253906 890.011719 617.003906 883.5625 617.003906 C 875.664063 617.003906 869.070313 611.683594 869.070313 602.609375 C 869.070313 588.035156 885.011719 581.695313 903.386719 578.261719 C 903.386719 565.410156 901.773438 560.265625 892.589844 560.265625 C 888.894531 560.265625 883.40625 563 883.40625 568.496094 C 883.40625 571.917969 880.984375 574.496094 877.921875 574.496094 C 874.703125 574.496094 872.28125 571.910156 872.28125 568.496094 C 872.28125 560.265625 882.433594 554.777344 892.746094 554.777344 C 908.367188 554.777344 914.828125 561.8125 914.828125 578.09375 L 914.828125 603.96875 C 914.828125 608.261719 916.109375 610.664063 918.523438 610.664063 C 920.136719 610.664063 921.90625 609.28125 923.035156 608.085938 L 925.292969 611.34375 C 922.238281 614.765625 918.203125 616.65625 914.660156 616.65625 Z M 903.378906 583.570313 C 888.066406 587.347656 881.140625 592.996094 881.140625 600.546875 C 881.140625 606.023438 884.683594 609.28125 888.707031 609.28125 C 892.09375 609.28125 895.964844 608.085938 903.378906 601.050781 Z M 927.773438 614.765625 L 927.773438 611.179688 C 938.570313 611.179688 940.507813 608.261719 940.507813 591.121094 L 940.507813 536.949219 C 940.507813 519.808594 938.570313 516.890625 927.773438 516.890625 L 927.773438 513.292969 L 951.945313 509.003906 L 951.945313 591.121094 C 951.945313 608.269531 954.039063 611.179688 964.679688 611.179688 L 964.679688 614.765625 Z M 967.472656 563.6875 L 967.472656 559.574219 C 977.140625 557.347656 980.691406 549.972656 981.820313 538.828125 L 987.304688 538.828125 L 987.304688 557.679688 L 1001.300781 557.679688 L 1001.300781 563.679688 L 987.304688 563.679688 L 987.304688 598.308594 C 987.304688 606.539063 989.394531 610.828125 994.542969 610.828125 C 997.449219 610.828125 1001.300781 608.601563 1005.027344 604.828125 L 1007.761719 607.734375 C 1003.238281 613.570313 996.15625 617.6875 990.835938 617.6875 C 981.984375 617.6875 975.847656 611.675781 975.847656 598.308594 L 975.847656 563.679688 L 967.472656 563.679688 Z M 1051.789063 614.765625 L 1051.789063 611.179688 C 1061.953125 611.179688 1063.226563 608.777344 1063.226563 591.121094 L 1063.226563 581.179688 C 1063.226563 570.042969 1059.375 562.84375 1050.988281 562.84375 C 1042.933594 562.84375 1033.585938 570.207031 1033.585938 579.984375 L 1033.585938 591.128906 C 1033.585938 608.960938 1034.882813 611.1875 1043.753906 611.1875 L 1043.753906 614.777344 L 1009.425781 614.777344 L 1009.425781 611.1875 C 1020.210938 611.1875 1022.15625 608.269531 1022.15625 591.128906 L 1022.15625 536.957031 C 1022.15625 519.820313 1020.222656 516.902344 1009.425781 516.902344 L 1009.425781 513.300781 L 1033.585938 509.011719 L 1033.585938 567.132813 C 1038.109375 561.296875 1045.347656 554.789063 1054.695313 554.789063 C 1069.511719 554.789063 1074.511719 565.761719 1074.511719 580.332031 L 1074.511719 591.128906 C 1074.511719 608.28125 1076.621094 611.1875 1087.410156 611.1875 L 1087.410156 614.777344 L 1051.789063 614.777344 Z M 1205.808594 535.402344 C 1205.808594 518.261719 1203.875 515.511719 1190.5 515.511719 L 1190.5 511.921875 L 1227.238281 511.921875 L 1227.238281 515.511719 C 1213.863281 515.511719 1211.773438 518.261719 1211.773438 535.402344 L 1211.773438 617.695313 L 1208.066406 617.695313 L 1142.464844 531.460938 L 1142.464844 591.121094 C 1142.464844 608.269531 1144.578125 611.179688 1157.953125 611.179688 L 1157.953125 614.765625 L 1121.210938 614.765625 L 1121.210938 611.179688 C 1134.585938 611.179688 1136.523438 608.261719 1136.523438 591.121094 L 1136.523438 535.402344 C 1136.523438 518.261719 1134.585938 515.511719 1121.210938 515.511719 L 1121.210938 511.921875 L 1143.933594 511.921875 L 1205.808594 593.523438 Z M 1257.355469 610.488281 C 1262.675781 610.488281 1270.410156 607.230469 1275.078125 602.597656 L 1277.988281 606.371094 C 1272.34375 612.726563 1262.519531 617.695313 1253.347656 617.695313 C 1235.605469 617.695313 1223.523438 603.453125 1223.523438 586.140625 C 1223.523438 567.980469 1238.339844 554.769531 1253.347656 554.769531 C 1267.675781 554.769531 1279.125 567.113281 1275.253906 581.851563 L 1236.421875 581.851563 C 1234.476563 597.96875 1240.761719 610.488281 1257.355469 610.488281 Z M 1264.136719 575.519531 C 1265.90625 570.042969 1263.164063 561.636719 1252.53125 561.636719 C 1245.59375 561.636719 1239.632813 567.105469 1237.382813 575.519531 Z M 1353.996094 561.101563 C 1347.058594 561.101563 1345.445313 564.546875 1348.199219 571.226563 L 1359.140625 597.96875 L 1372.195313 557.679688 L 1375.746094 557.679688 L 1392.175781 597.96875 L 1400.882813 571.226563 C 1403.136719 564.371094 1401.855469 561.101563 1396.210938 561.101563 L 1396.210938 557.679688 L 1418.78125 557.679688 L 1418.78125 561.101563 C 1413.136719 561.101563 1409.910156 563.6875 1407.339844 571.226563 L 1391.058594 617.851563 L 1387.828125 617.851563 L 1371.863281 578.25 L 1358.011719 617.851563 L 1354.785156 617.851563 L 1336.90625 573.796875 C 1333.851563 566.257813 1330.941406 563.6875 1325.941406 563.6875 L 1304.835938 563.6875 L 1304.835938 598.320313 C 1304.835938 606.546875 1306.925781 610.835938 1312.089844 610.835938 C 1314.980469 610.835938 1318.851563 608.609375 1322.558594 604.835938 L 1325.289063 607.746094 C 1320.785156 613.582031 1313.6875 617.695313 1308.363281 617.695313 C 1299.511719 617.695313 1293.394531 611.683594 1293.394531 598.320313 L 1293.394531 563.6875 L 1285 563.6875 L 1285 559.574219 C 1294.667969 557.347656 1298.21875 549.972656 1299.347656 538.828125 L 1304.835938 538.828125 L 1304.835938 557.679688 L 1353.984375 557.679688 L 1353.984375 561.101563 Z M 1450.246094 617.695313 C 1432.367188 617.695313 1417.699219 603.453125 1417.699219 586.140625 C 1417.699219 568.835938 1432.367188 554.769531 1450.246094 554.769531 C 1468.144531 554.769531 1482.816406 568.824219 1482.816406 586.140625 C 1482.804688 603.453125 1468.136719 617.695313 1450.246094 617.695313 Z M 1450.246094 561.277344 C 1437.046875 561.277344 1430.753906 572.425781 1430.753906 586.140625 C 1430.753906 599.867188 1437.039063 611.003906 1450.246094 611.003906 C 1463.640625 611.003906 1469.761719 599.867188 1469.761719 586.140625 C 1469.75 572.425781 1463.640625 561.277344 1450.246094 561.277344 Z M 1532.734375 573.457031 C 1529.679688 573.457031 1527.09375 570.546875 1527.09375 567.289063 C 1527.09375 563.6875 1525.15625 561.636719 1521.949219 561.636719 C 1518.242188 561.636719 1509.527344 567.96875 1509.527344 581.683594 L 1509.527344 591.121094 C 1509.527344 608.269531 1511.460938 611.179688 1522.257813 611.179688 L 1522.257813 614.765625 L 1485.363281 614.765625 L 1485.363281 611.179688 C 1496.003906 611.179688 1498.097656 608.261719 1498.097656 591.121094 L 1498.097656 582.550781 C 1498.097656 565.402344 1496.003906 562.660156 1485.363281 562.660156 L 1485.363281 559.070313 L 1506.792969 554.777344 C 1507.589844 556.5 1509.050781 563.523438 1509.527344 567.125 C 1512.753906 560.273438 1519.992188 554.777344 1526.453125 554.777344 C 1535.304688 554.777344 1539.183594 561.113281 1539.183594 565.410156 C 1539.175781 569.175781 1537.734375 573.457031 1532.734375 573.457031 Z M 1532.734375 573.457031 "/>
<path style=" stroke:none;fill-rule:evenodd;fill:rgb(0%,0%,0%);fill-opacity:1;" d="M 1597.9375 607.054688 C 1600.671875 609.972656 1605.351563 611.179688 1607.441406 611.179688 L 1607.441406 614.765625 L 1589.5625 614.765625 L 1563.132813 586.832031 L 1561.695313 588.027344 L 1561.695313 591.109375 C 1561.695313 608.261719 1563.765625 611.167969 1574.40625 611.167969 L 1574.40625 614.757813 L 1537.511719 614.757813 L 1537.511719 611.167969 C 1548.300781 611.167969 1550.246094 608.25 1550.246094 591.109375 L 1550.246094 536.9375 C 1550.246094 519.800781 1548.308594 516.882813 1537.511719 516.882813 L 1537.511719 513.28125 L 1561.695313 508.992188 L 1561.695313 581.851563 L 1575.222656 570.195313 C 1580.546875 565.566406 1578.277344 561.101563 1570.398438 561.101563 L 1570.398438 557.679688 L 1602.617188 557.679688 L 1602.617188 561.101563 C 1602.617188 561.101563 1591.976563 561.96875 1585.691406 567.289063 L 1571.996094 579.28125 Z M 1597.9375 607.054688 "/>
<path style=" stroke:none;fill-rule:evenodd;fill:rgb(77.645874%,71.37146%,49.803162%);fill-opacity:1;" d="M 1659.746094 116.710938 C 1657.117188 134.976563 1651.011719 147.085938 1655.960938 173.058594 C 1664.335938 217.132813 1693.179688 215.5 1694.015625 262.445313 C 1694.03125 263.199219 1694.648438 263.800781 1695.40625 263.796875 C 1695.945313 263.78125 1696.429688 263.457031 1696.640625 262.960938 C 1711.308594 240.519531 1720.617188 211.675781 1721.582031 179.234375 C 1722.574219 133.402344 1702.679688 94.347656 1668.996094 66.808594 C 1668.636719 66.582031 1668.539063 66.109375 1668.773438 65.757813 C 1668.992188 65.402344 1669.464844 65.300781 1669.8125 65.535156 C 1720.484375 98.957031 1744.996094 153.632813 1733.039063 211.707031 C 1725.386719 249.613281 1705.96875 280.507813 1678.148438 297.820313 C 1665.707031 305.585938 1658.199219 308.433594 1644.636719 311.925781 C 1643.761719 312.179688 1643.742188 313.503906 1644.734375 313.871094 C 1647.070313 314.921875 1649.199219 316.003906 1651.195313 317.101563 C 1652.03125 317.53125 1652.730469 317.539063 1653.492188 316.964844 C 1675.890625 302.878906 1704.78125 291.519531 1735.277344 287.667969 C 1745.648438 286.34375 1767.484375 282.492188 1764.820313 267.210938 C 1763.320313 261.140625 1762.746094 255.964844 1761.210938 249.964844 C 1759.675781 244 1765.472656 241.8125 1768.410156 239.378906 C 1771.601563 234.457031 1768.945313 230.761719 1764.519531 227.6875 C 1763.039063 226.675781 1763.261719 225.65625 1764.023438 225.5 C 1768.984375 225.140625 1773.03125 221.269531 1771.941406 217.53125 C 1769.945313 212.53125 1763.089844 204.488281 1769.167969 196.523438 C 1772.476563 192.152344 1773.496094 191.25 1779.59375 189.800781 C 1785.335938 188.390625 1787.804688 181.714844 1784.820313 177.796875 C 1773.816406 163.925781 1765.441406 153.972656 1754.664063 140.21875 C 1749.578125 130.132813 1762.953125 116.464844 1750.859375 103.957031 C 1720.707031 72.722656 1681.292969 46.671875 1626.4375 40.445313 C 1625.449219 40.460938 1624.652344 41.265625 1624.648438 42.257813 C 1626.664063 54.792969 1635.671875 63.394531 1644.121094 71.273438 C 1656.574219 82.828125 1662.117188 100.015625 1659.746094 116.710938 Z M 1659.746094 116.710938 "/>
<path style=" stroke:none;fill-rule:evenodd;fill:rgb(77.645874%,71.37146%,49.803162%);fill-opacity:1;" d="M 1764.175781 362.460938 C 1764.671875 361.605469 1764.214844 360.40625 1763.359375 359.921875 C 1751.484375 355.40625 1739.539063 358.898438 1728.476563 362.285156 C 1712.253906 367.246094 1694.609375 363.460938 1681.320313 353.0625 C 1666.808594 341.671875 1659.375 330.300781 1634.414063 321.59375 C 1592.050781 306.828125 1579.058594 332.625 1537.976563 309.875 C 1537.324219 309.503906 1536.492188 309.734375 1536.121094 310.390625 C 1535.863281 310.867188 1535.910156 311.453125 1536.238281 311.886719 C 1548.339844 335.808594 1568.667969 358.289063 1596.253906 375.359375 C 1635.464844 399.132813 1679.238281 401.429688 1719.9375 386.03125 C 1720.296875 385.824219 1720.773438 385.972656 1720.960938 386.351563 C 1721.144531 386.730469 1721 387.175781 1720.617188 387.363281 C 1666.339844 414.539063 1606.742188 408.410156 1562.414063 369.035156 C 1533.425781 343.441406 1516.382813 311.1875 1515.273438 278.453125 C 1514.777344 263.785156 1516.074219 255.867188 1519.835938 242.375 C 1520.042969 241.5 1518.902344 240.820313 1518.085938 241.492188 C 1516.132813 242.894531 1514.121094 244.222656 1512.066406 245.46875 C 1511.285156 245.976563 1510.925781 246.589844 1511.042969 247.523438 C 1510.925781 281.898438 1504.867188 322.839844 1489 359.28125 C 1486.851563 364.269531 1488.863281 370.289063 1492.027344 373.675781 C 1496.414063 378.363281 1500.34375 377.0625 1505.664063 379.902344 C 1510.605469 381.574219 1512.660156 388.695313 1513.980469 392.078125 C 1516.589844 395.171875 1519.585938 395.125 1521.414063 394.308594 C 1521.8125 394.101563 1522.40625 394.230469 1522.40625 394.230469 C 1522.648438 395.660156 1523.203125 398.488281 1525.847656 400.589844 C 1527.445313 401.378906 1535.554688 398.792969 1538.125 403.101563 C 1541.8125 408.976563 1538.046875 419.054688 1545.703125 421.777344 C 1556.703125 422 1570.835938 416.691406 1583.492188 418.566406 C 1596.886719 420.851563 1605.835938 431.476563 1619.191406 435.695313 C 1628.746094 438.46875 1637.488281 439.734375 1646.757813 438.109375 C 1688.03125 428.421875 1731.425781 406.136719 1764.175781 362.460938 Z M 1764.175781 362.460938 "/>
<path style=" stroke:none;fill-rule:evenodd;fill:rgb(77.645874%,71.37146%,49.803162%);fill-opacity:1;" d="M 1415.472656 320.214844 C 1415.96875 321.050781 1417.261719 321.253906 1418.097656 320.769531 C 1427.941406 312.753906 1430.878906 300.652344 1433.488281 289.386719 C 1437.308594 272.84375 1449.410156 259.4375 1465.042969 253.164063 C 1482.183594 246.285156 1495.722656 245.539063 1515.75 228.253906 C 1549.71875 198.953125 1533.875 174.800781 1574.117188 150.597656 C 1574.929688 150.457031 1575.421875 149.625 1575.15625 148.84375 C 1574.890625 148.0625 1573.988281 147.703125 1573.257813 148.089844 C 1546.488281 146.609375 1516.851563 152.960938 1488.261719 168.339844 C 1448.058594 190.402344 1424.199219 227.164063 1417.203125 270.109375 C 1417.179688 270.527344 1416.824219 270.851563 1416.40625 270.839844 C 1415.988281 270.816406 1415.664063 270.460938 1415.6875 270.039063 C 1419.296875 209.429688 1454.390625 160.878906 1510.664063 142.195313 C 1547.335938 129.871094 1583.792969 131.242188 1612.683594 146.660156 C 1625.640625 153.574219 1631.855469 158.625 1641.660156 168.644531 C 1642.304688 169.257813 1643.472656 168.625 1643.296875 167.574219 C 1643.054688 165.175781 1642.910156 162.773438 1642.859375 160.367188 C 1642.820313 159.429688 1642.460938 158.820313 1641.605469 158.449219 C 1618.179688 146.085938 1593.882813 126.726563 1575.28125 102.226563 C 1568.960938 93.890625 1556.023438 79.375 1542.792969 86.867188 C 1537.375 90.007813 1536.296875 91.464844 1531.8125 97 C 1527.941406 101.808594 1519.894531 99.863281 1516.878906 97.664063 C 1511.023438 97.363281 1506.394531 102.398438 1507.269531 107.730469 C 1507.492188 109.21875 1506.132813 109.832031 1505.597656 109.25 C 1502.824219 105.132813 1493.933594 104.289063 1490.984375 109.171875 C 1490.546875 112.683594 1486.382813 121.535156 1480.101563 117.554688 C 1472.902344 111.933594 1465.109375 112.1875 1461.636719 118.402344 C 1455.636719 130.492188 1455.675781 132.855469 1442.40625 154.5 C 1435.054688 163.800781 1412.105469 172.097656 1407.867188 184.597656 C 1397.214844 225.917969 1394.636719 268.523438 1415.472656 320.214844 Z M 1415.472656 320.214844 "/>
</g>
</svg>
